<svg width="145" height="26" viewBox="0 0 145 26" fill="none" xmlns="http://www.w3.org/2000/svg">
<g clip-path="url(#clip0_12820_67013)">
<g filter="url(#filter0_diii_12820_67013)">
<path fill-rule="evenodd" clip-rule="evenodd" d="M54.3797 5.31922C54.3797 8.14693 52.0875 10.4392 49.2598 10.4392C46.8743 10.4392 44.8697 8.80754 44.3013 6.59922H37.1531C35.9018 6.59922 34.8337 7.50399 34.628 8.73835L34.4176 10.0009C34.2177 11.1998 33.6114 12.2431 32.7539 12.9992C33.6114 13.7554 34.2177 14.7987 34.4176 15.9975L34.628 17.2601C34.8337 18.4945 35.9018 19.3992 37.1531 19.3992H39.1815C39.7498 17.1909 41.7544 15.5592 44.14 15.5592C46.9676 15.5592 49.2598 17.8515 49.2598 20.6792C49.2598 23.507 46.9676 25.7992 44.14 25.7992C41.7544 25.7992 39.7498 24.1675 39.1815 21.9592H37.1531C34.6504 21.9592 32.5144 20.1497 32.1029 17.6809L31.8925 16.4183C31.6868 15.184 30.6188 14.2792 29.3674 14.2792H27.2792C26.6401 16.3785 24.6887 17.9059 22.3805 17.9059C20.0724 17.9059 18.1209 16.3785 17.4818 14.2792H14.4795C13.8404 16.3785 11.889 17.9059 9.58081 17.9059C6.75318 17.9059 4.46094 15.6135 4.46094 12.7859C4.46094 9.9582 6.75318 7.66591 9.58081 7.66591C12.0427 7.66591 14.0987 9.40351 14.5894 11.7192H17.3719C17.8626 9.40351 19.9187 7.66591 22.3805 7.66591C24.8424 7.66591 26.8984 9.40351 27.3891 11.7192H29.3674C30.6188 11.7192 31.6868 10.8145 31.8925 9.58008L32.1029 8.31749C32.5144 5.84869 34.6504 4.03922 37.1531 4.03922H44.3013C44.8697 1.83093 46.8743 0.199219 49.2598 0.199219C52.0875 0.199219 54.3797 2.49152 54.3797 5.31922ZM51.8198 5.31922C51.8198 6.73304 50.6737 7.87922 49.2598 7.87922C47.8461 7.87922 46.6999 6.73304 46.6999 5.31922C46.6999 3.90537 47.8461 2.75922 49.2598 2.75922C50.6737 2.75922 51.8198 3.90537 51.8198 5.31922ZM9.58081 15.3459C10.9947 15.3459 12.1407 14.1998 12.1407 12.7859C12.1407 11.372 10.9947 10.2259 9.58081 10.2259C8.167 10.2259 7.02087 11.372 7.02087 12.7859C7.02087 14.1998 8.167 15.3459 9.58081 15.3459ZM22.3805 15.3459C23.7943 15.3459 24.9404 14.1998 24.9404 12.7859C24.9404 11.372 23.7943 10.2259 22.3805 10.2259C20.9667 10.2259 19.8205 11.372 19.8205 12.7859C19.8205 14.1998 20.9667 15.3459 22.3805 15.3459ZM44.14 23.2392C45.5538 23.2392 46.6999 22.0931 46.6999 20.6792C46.6999 19.2654 45.5538 18.1192 44.14 18.1192C42.7262 18.1192 41.58 19.2654 41.58 20.6792C41.58 22.0931 42.7262 23.2392 44.14 23.2392Z" fill="#7A7A7A"></path>
</g>
<path fill-rule="evenodd" clip-rule="evenodd" d="M79.7217 12.3624V12.237C80.6408 11.7775 81.5598 10.9839 81.5598 9.41768C81.5598 7.16219 79.7006 5.80469 77.1324 5.80469C74.5007 5.80469 72.6211 7.24571 72.6211 9.45941C72.6211 10.9631 73.4985 11.7775 74.4591 12.237V12.3624C73.3942 12.7383 72.12 13.866 72.12 15.7455C72.12 18.022 73.9996 19.6092 77.1112 19.6092C80.2229 19.6092 82.0398 18.022 82.0398 15.7455C82.0398 13.866 80.7867 12.7592 79.7217 12.3624ZM77.1112 7.72603C78.1557 7.72603 78.9282 8.39432 78.9282 9.52206C78.9282 10.6498 78.1346 11.3182 77.1112 11.3182C76.0879 11.3182 75.2316 10.6498 75.2316 9.52206C75.2316 8.37346 76.0463 7.72603 77.1112 7.72603ZM77.1112 17.6043C75.8998 17.6043 74.9187 16.8316 74.9187 15.5159C74.9187 14.3255 75.7327 13.4274 77.0901 13.4274C78.4271 13.4274 79.2418 14.3045 79.2418 15.5577C79.2418 16.8316 78.3016 17.6043 77.1112 17.6043ZM59.5078 19.3999H62.181V13.7403C62.181 11.8816 63.3087 11.0671 64.5826 11.0671C65.8356 11.0671 66.8172 11.9024 66.8172 13.6149V19.3999H69.49V13.072C69.49 10.3362 67.9028 8.74896 65.418 8.74896C63.8517 8.74896 62.9745 9.37546 62.348 10.1899H62.181L61.9513 8.9578H59.5078V19.3999ZM87.4283 19.3999H84.7551V8.9578H87.1986L87.4283 10.1899H87.5954C88.2219 9.37546 89.0993 8.74896 90.6654 8.74896C93.1505 8.74896 94.7376 10.3362 94.7376 13.072V19.3999H92.0644V13.6149C92.0644 11.9024 91.0833 11.0671 89.8302 11.0671C88.556 11.0671 87.4283 11.8816 87.4283 13.7403V19.3999Z" fill="white"></path>
<path d="M100.531 4.46484L100.531 21.5315" stroke="white" stroke-linecap="round"></path>
<path d="M105.594 19.9341V5.28125H107.195V11.0978C107.519 10.5506 108.715 9.13192 110.924 9.13192C113.903 9.13192 115.95 11.4423 115.95 14.685C115.95 17.9074 113.802 20.1975 110.802 20.1975C108.512 20.1975 107.397 18.6573 107.134 18.2722V19.9341H105.594ZM107.134 14.7053C107.134 16.9143 108.512 18.7586 110.701 18.7586C112.727 18.7586 114.308 17.1575 114.308 14.7053C114.308 12.2935 112.809 10.5911 110.741 10.5911C108.755 10.5911 107.134 12.0909 107.134 14.7053ZM118.003 19.9341V5.28125H119.604V19.9341H118.003ZM123.289 14.6647C123.289 17.0359 124.89 18.7383 127.14 18.7383C129.41 18.7383 131.031 17.0157 131.031 14.6647C131.031 12.3341 129.41 10.5911 127.14 10.5911C124.87 10.5911 123.289 12.3543 123.289 14.6647ZM121.648 14.6647C121.648 11.4829 124.019 9.13192 127.16 9.13192C130.342 9.13192 132.652 11.5031 132.652 14.6647C132.652 17.8263 130.301 20.1975 127.14 20.1975C123.978 20.1975 121.648 17.8669 121.648 14.6647ZM135.274 22.7714L135.842 21.5149C136.247 21.7581 137.503 22.3863 139.023 22.3863C141.03 22.3863 142.732 21.5554 142.732 19.2045V18.2722C142.489 18.6573 141.394 20.1975 139.084 20.1975C136.064 20.1975 133.997 17.9074 133.997 14.685C133.997 11.4423 136.085 9.13192 139.064 9.13192C141.253 9.13192 142.448 10.5303 142.793 11.0978V9.39538H144.333V18.4749C144.333 22.4674 142.084 23.8253 139.044 23.8253C137.665 23.8253 136.186 23.3389 135.274 22.7714ZM142.793 14.685C142.793 12.1314 141.192 10.5911 139.185 10.5911C137.139 10.5911 135.619 12.2733 135.619 14.685C135.619 17.1373 137.199 18.7383 139.226 18.7383C141.394 18.7383 142.793 16.9549 142.793 14.685Z" fill="white"></path>
</g>
<defs>
<filter id="filter0_diii_12820_67013" x="-3.53906" y="0.199219" width="65.9219" height="41.6016" filterUnits="userSpaceOnUse" color-interpolation-filters="sRGB">
<feFlood flood-opacity="0" result="BackgroundImageFix"></feFlood>
<feColorMatrix in="SourceAlpha" type="matrix" values="0 0 0 0 0 0 0 0 0 0 0 0 0 0 0 0 0 0 127 0" result="hardAlpha"></feColorMatrix>
<feOffset dy="8"></feOffset>
<feGaussianBlur stdDeviation="4"></feGaussianBlur>
<feComposite in2="hardAlpha" operator="out"></feComposite>
<feColorMatrix type="matrix" values="0 0 0 0 0.0313726 0 0 0 0 0.0313726 0 0 0 0 0.0313726 0 0 0 0.08 0"></feColorMatrix>
<feBlend mode="normal" in2="BackgroundImageFix" result="effect1_dropShadow_12820_67013"></feBlend>
<feBlend mode="normal" in="SourceGraphic" in2="effect1_dropShadow_12820_67013" result="shape"></feBlend>
<feColorMatrix in="SourceAlpha" type="matrix" values="0 0 0 0 0 0 0 0 0 0 0 0 0 0 0 0 0 0 127 0" result="hardAlpha"></feColorMatrix>
<feOffset dy="2"></feOffset>
<feGaussianBlur stdDeviation="2"></feGaussianBlur>
<feComposite in2="hardAlpha" operator="arithmetic" k2="-1" k3="1"></feComposite>
<feColorMatrix type="matrix" values="0 0 0 0 0.0313726 0 0 0 0 0.0313726 0 0 0 0 0.0313726 0 0 0 0.2 0"></feColorMatrix>
<feBlend mode="normal" in2="shape" result="effect2_innerShadow_12820_67013"></feBlend>
<feColorMatrix in="SourceAlpha" type="matrix" values="0 0 0 0 0 0 0 0 0 0 0 0 0 0 0 0 0 0 127 0" result="hardAlpha"></feColorMatrix>
<feOffset dy="2"></feOffset>
<feGaussianBlur stdDeviation="1"></feGaussianBlur>
<feComposite in2="hardAlpha" operator="arithmetic" k2="-1" k3="1"></feComposite>
<feColorMatrix type="matrix" values="0 0 0 0 1 0 0 0 0 1 0 0 0 0 1 0 0 0 0.2 0"></feColorMatrix>
<feBlend mode="normal" in2="effect2_innerShadow_12820_67013" result="effect3_innerShadow_12820_67013"></feBlend>
<feColorMatrix in="SourceAlpha" type="matrix" values="0 0 0 0 0 0 0 0 0 0 0 0 0 0 0 0 0 0 127 0" result="hardAlpha"></feColorMatrix>
<feOffset dy="12"></feOffset>
<feGaussianBlur stdDeviation="12"></feGaussianBlur>
<feComposite in2="hardAlpha" operator="arithmetic" k2="-1" k3="1"></feComposite>
<feColorMatrix type="matrix" values="0 0 0 0 1 0 0 0 0 1 0 0 0 0 1 0 0 0 0.12 0"></feColorMatrix>
<feBlend mode="normal" in2="effect3_innerShadow_12820_67013" result="effect4_innerShadow_12820_67013"></feBlend>
</filter>
<clipPath id="clip0_12820_67013">
<rect width="144.53" height="25.6" fill="white" transform="translate(0 0.199219)"></rect>
</clipPath>
</defs>
</svg>
